<svg fill="none" height="26" viewBox="0 0 170 26" width="170" xmlns="http://www.w3.org/2000/svg"><g fill="#ccb5cc"><path d="m153.997 23.4292v1.6892h14.912v-1.6892z"/><path d="m107.239.0626797c-2.882.0063857-5.738 1.2534203-8.0082 3.6854003-.1565.16764-.3087.34739-.4584.53271-.1544.19129-.3036.38776-.4476.58916-.0095.01342-.0185.02767-.0279.04115-.151.21694-.2959.43928-.4343.66668-.025.04083-.0509.08027-.0755.12154-.1391.2335-.2715.47207-.3969.71532-.0186.03557-.0375.07074-.0558.10654-.9954 1.96671-1.5193 4.19422-1.5198 6.46122 0 3.4468 1.2087 6.7524 3.3603 9.1897 2.1511 2.4372 5.0691 3.8064 8.1121 3.8064 2.73-.0008 5.37-1.1043 7.446-3.1123 2.077-2.008 3.453-4.7888 3.881-7.8429.013-.492.014-1.0828.014-1.8659 0-1.0942-.006-1.8302-.041-2.4167-.156-1.00907-.417-1.99376-.777-2.93352-1.067-2.55252-2.189-4.06894-4.06-5.48385-2.01-1.521013-4.269-2.265854-6.511-2.2606503zm4.34 3.1689603c.036.00105.067.00743.093.0185.485.21068.483 1.86042-.003 3.17838-.429 1.16511-.483 2.2391-.124 2.49048.137.09566.249.3712.249.61261s.349.89019.776 1.44129c.995 1.2833 1.46 2.5591 1.46 4.0016 0 .6305.204 1.6162.453 2.1908.452 1.0407.464 2.0303.027 2.0303-.127 0-.231.1664-.231.37s-.382.5766-.848.8288c-.576.3106-.952.7807-1.169 1.4593-.176.5508-.409 1.0019-.518 1.0019-.283 0-.234-.3182.174-1.1261.414-.8203.457-1.1262.158-1.1262-.118 0-.525.5068-.904 1.1262s-.795 1.1261-.925 1.1261.108-.5295.528-1.1767c.902-1.3895.806-1.7708-.178-.7034-.776.8427-1.345 1.0379-.711.2442.387-.4845.349-.5101-.786-.5295-.657-.0112-1.544-.2253-1.971-.4758-.802-.4696-2.046-2.0901-2.046-2.6648 0-.6242.387-.3178.863.682.909 1.9137 3.364 2.527 5.201 1.2994 1.35-.902 2.116-.771 1.33.2276-.264.3357-.246.3391.124.022.279-.2389.435-.2622.435-.0654 0 .5135.623.0726 1.046-.7402.371-.7111.366-.8348-.064-1.7503-.255-.5419-.469-1.5158-.474-2.1638-.006-.648-.13-1.5349-.275-1.9708-.265-.7951-1.416-2.3416-1.743-2.3416-.096 0-.25.4602-.344 1.0224-.103.6226-.258.921-.398.7632-.139-.1579-.132-.6396.018-1.2318.403-1.59104.309-1.58929-1.138.0193-1.301 1.4464-1.376 1.6026-1.24 2.5949.155 1.135-.202 1.4705-.45.4224-.293-1.2395-.142-1.6714 1.12-3.1829l1.278-1.52983-1.216.41743c-1.454.4996-1.339.4875-1.339.1435 0-.1542.671-.49177 1.491-.75008 1.355-.42659 1.492-.53983 1.492-1.23384 0-.42025.167-1.21859.372-1.77452.373-1.00947.51-2.71824.219-2.71824-.318 0-2.997 1.96662-3.448 2.53116-.258.32341-1.163.96341-2.01 1.42156-2.047 1.10635-4.013 3.14466-4.734 4.90836-.318.7766-.714 2.3315-.881 3.455s-.4071 2.0429-.5347 2.0429c-.3241 0-.0075-2.4338.6117-4.7066.427-1.5663.753-2.149 1.925-3.44619.775-.85857 2.134-1.99121 3.018-2.51696.885-.52574 2.056-1.35984 2.603-1.85362 1.321-1.19277 2.871-2.19356 3.514-2.30467.046-.00745.088-.01153.124-.00972zm1.035 12.62136c.036-.0007.064.0053.087.0192.104.0627.085.2817.041.7165-.097.9517-.811 1.1731-1.19.3691-.239-.5042-.188-.6205.372-.8618.349-.1503.564-.2406.69-.243z"/><path d="m153.997.0505829v1.6892871h14.912v-1.6892871z"/><path d="m71.1742.0505829v25.9023171h1.7398v-12.388h15.1608v12.388h1.7398v-25.9023171h-1.7398v11.8250171h-15.1608v-11.8250171z"/><path d="m124.628.0148468v25.9381532h1.734l.13-21.70724 4.698 9.16404c3.163 6.1684 4.832 9.1646 5.108 9.1646s1.946-3.0045 5.119-9.2086l4.71-9.20857.13 21.79577h1.734v-25.9381532l-.779.0880032c-.744.084171-1.006.531675-5.777 9.87177-2.749 5.38108-5.055 9.77978-5.124 9.77438-.069-.0053-2.363-4.4079-5.097-9.78374-4.814-9.463568-4.998-9.776962-5.779-9.86241z"/><path d="m0 0v1.73932l5.4057.00639c5.9179.00745 7.1198.19626 8.5299 1.34064 2.2305 1.81013 2.3308 5.6306.1956 7.45665-1.3544 1.1582-2.4394 1.328-8.47696 1.3302l-5.65424.0021v1.6338l12.7997.1963 1.4801.8446c2.0493 1.1695 2.4965 1.9512 2.4965 4.364 0 2.1432-.3871 3.0159-1.8334 4.1314-1.2906.9953-2.9553 1.218-9.1144 1.218h-5.8285v1.7366l6.64839-.1067c6.16691-.0992 6.74961-.1527 8.04541-.7346 1.93-.8668 3.0934-2.2197 3.5975-4.1842.9326-3.6341-.5646-6.9857-3.5698-7.9917l-1.0606-.3552.7485-.4108c1.0738-.5891 2.4147-2.37726 2.7218-3.62985.8332-3.39943-.5058-6.43269-3.4145-7.734304-1.3015-.582391-1.9039-.641503-7.56538-.742914zm47.4708.003193v1.666187l5.1571.13967c5.8782.15909 7.2215.49144 8.7804 2.17155 2.1411 2.30756 2.1643 7.1483.0461 9.6534-.3597.4254-1.2765 1.0509-2.0373 1.3896-1.2302.5477-1.968.6285-6.6649.7325l-5.2815.1166v10.0801h1.7398v-8.4216l8.6391-.1655 2.6942 4.2936c2.6857 4.2799 2.6975 4.2936 3.6625 4.2936h.9679l-.4475-.7743c-.2462-.4258-1.4113-2.2946-2.5888-4.1528s-2.223-3.5325-2.3237-3.7206c-.1208-.2254.2262-.5769 1.0184-1.0316 2.6096-1.4981 3.9102-3.8991 3.9072-7.21356-.0028-3.02891-.4172-4.31529-1.9485-6.04996-2.1873-2.477809-3.1864-2.774091-9.7906-2.90071zm-16.3167.0187271-4.4334 10.9242799c-2.4384 6.0082-4.8041 11.8428-5.2566 12.9655l-.8228 2.0412h1.8863l4.7528-11.8905c3.3054-8.26902 4.8045-11.73681 4.9227-11.38778.0935.27605 2.214 5.59469 4.7126 11.81948l4.5431 11.318.8936.0875c.4915.0481.8899-.0153.8859-.1408-.0039-.1255-2.3258-5.9295-5.1601-12.8978l-5.1532-12.669672z"/><path d="m153.991 11.7399v1.6893h14.912v-1.6893z"/></g></svg>